<svg xmlns="http://www.w3.org/2000/svg" width="60.391" height="58.882" viewBox="0 0 60.391 58.882">
  <path id="Icon_awesome-github" data-name="Icon awesome-github" d="M20.2,47.974c0,.244-.28.438-.633.438-.4.037-.682-.158-.682-.438,0-.244.28-.438.633-.438C19.883,47.5,20.2,47.694,20.2,47.974Zm-3.787-.548c-.085.244.158.524.524.6a.571.571,0,0,0,.755-.244c.073-.244-.158-.524-.524-.633A.625.625,0,0,0,16.413,47.427Zm5.382-.207c-.353.085-.6.317-.56.6.037.244.353.4.718.317s.6-.317.56-.56S22.147,47.183,21.794,47.22ZM29.806.563C12.918.563,0,13.383,0,30.271A30.526,30.526,0,0,0,20.638,59.4c1.558.28,2.106-.682,2.106-1.473,0-.755-.037-4.919-.037-7.476,0,0-8.523,1.826-10.313-3.628,0,0-1.388-3.543-3.385-4.456,0,0-2.788-1.912.195-1.875a6.427,6.427,0,0,1,4.7,3.141c2.666,4.7,7.135,3.348,8.876,2.545a6.767,6.767,0,0,1,1.948-4.1c-6.806-.755-13.673-1.741-13.673-13.454a9.228,9.228,0,0,1,2.873-7.171,11.5,11.5,0,0,1,.317-8.267c2.545-.791,8.4,3.287,8.4,3.287a28.764,28.764,0,0,1,15.293,0s5.856-4.091,8.4-3.287a11.5,11.5,0,0,1,.317,8.267C48.605,23.6,49.8,25.279,49.8,28.615c0,11.749-7.171,12.687-13.978,13.454,1.12.962,2.07,2.788,2.07,5.649,0,4.1-.037,9.18-.037,10.179,0,.791.56,1.753,2.106,1.473,12.176-4.042,20.431-15.6,20.431-29.1C60.391,13.383,46.694.563,29.806.563ZM11.835,42.556c-.158.122-.122.4.085.633.195.195.475.28.633.122.158-.122.122-.4-.085-.633C12.273,42.483,11.993,42.4,11.835,42.556ZM10.52,41.57c-.085.158.037.353.28.475a.362.362,0,0,0,.524-.085c.085-.158-.037-.353-.28-.475C10.8,41.412,10.6,41.448,10.52,41.57ZM14.465,45.9c-.195.158-.122.524.158.755.28.28.633.317.791.122.158-.158.085-.524-.158-.755C14.988,45.746,14.623,45.71,14.465,45.9Zm-1.388-1.79c-.195.122-.195.438,0,.718s.524.4.682.28a.555.555,0,0,0,0-.755C13.588,44.078,13.271,43.957,13.077,44.115Z" transform="translate(0 -0.563)" fill="#ececec"/>
</svg>
