<svg xmlns="http://www.w3.org/2000/svg" width="56.554" height="56.553" viewBox="0 0 56.554 56.553">
  <path id="Icon_awesome-linkedin-in" data-name="Icon awesome-linkedin-in" d="M12.659,56.553H.934V18.8H12.659ZM6.79,13.646a6.823,6.823,0,1,1,6.79-6.855A6.848,6.848,0,0,1,6.79,13.646ZM56.541,56.553h-11.7V38.173c0-4.38-.088-10-6.1-10-6.1,0-7.03,4.759-7.03,9.682v18.7H20V18.8H31.249v5.15h.164a12.32,12.32,0,0,1,11.094-6.1c11.866,0,14.048,7.814,14.048,17.963V56.553Z" transform="translate(0 0)" fill="#ececec"/>
</svg>
